<?xml version="1.0" encoding="utf-8"?>
<!-- Svg Vector Icons : http://www.onlinewebfonts.com/icon -->
<!DOCTYPE svg PUBLIC "-//W3C//DTD SVG 1.1//EN" "http://www.w3.org/Graphics/SVG/1.1/DTD/svg11.dtd">
<svg version="1.1" xmlns="http://www.w3.org/2000/svg" xmlns:xlink="http://www.w3.org/1999/xlink" x="0px" y="0px" viewBox="0 0 1000 1000" enable-background="new 0 0 1000 1000" xml:space="preserve">
<metadata> Svg Vector Icons : http://www.onlinewebfonts.com/icon </metadata>
<g><path d="M10,39.4c0,8.8,2.9,14.7,8.8,20.6l441.4,441.4L21.8,940c-5.9,5.9-8.8,11.8-8.8,20.6c0,5.9,2.9,14.7,8.8,20.6c5.9,5.9,11.8,8.8,20.6,8.8c5.9,0,14.7-2.9,20.6-8.8l438.5-438.5L940,981.2c5.9,5.9,11.8,8.8,20.6,8.8c5.9,0,14.7-2.9,20.6-8.8c2.9-5.9,8.8-14.7,8.8-20.6c0-8.8-5.9-14.7-8.8-20.6L542.7,501.5L981.2,60c5.9-5.9,8.8-11.8,8.8-20.6c0-5.9-2.9-14.7-8.8-20.6c-5.9-2.9-11.8-8.8-20.6-8.8c-5.9,0-14.7,5.9-20.6,8.8L501.5,460.3L60,18.8C54.1,15.9,48.2,10,39.4,10c-5.9,0-14.7,5.9-20.6,8.8C13,24.7,10,33.5,10,39.4z"/></g>
</svg>